<svg width="48" height="28" viewBox="0 0 48 28" fill="none" xmlns="http://www.w3.org/2000/svg">
<path d="M12.5613 0.0196383C16.1503 0.0196383 24.3277 0.0196383 24.3277 0.0196383V6.50385H12.5261C10.9545 6.50385 9.79337 7.05403 9.04274 8.15438C8.31557 9.25473 7.95198 10.7874 7.95198 12.7523V15.2674C7.95198 17.2061 8.31557 18.7387 9.04274 19.8653C9.79337 20.9656 10.931 21.5158 12.4558 21.5158C13.957 21.5158 15.8688 21.5158 15.8688 21.5158H22.266V28H12.5613C8.43286 28 5.30132 26.8211 3.16672 24.4632C1.05557 22.1053 0 18.6208 0 14.0098C0 9.39882 1.05557 5.91438 3.16672 3.55648C5.30132 1.19859 8.43286 0.0196383 12.5613 0.0196383Z" fill="url(#paint0_linear_364_300)"/>
<path d="M47.2963 8.29193C47.2963 9.94246 46.8975 11.4358 46.1 12.7719C45.3024 14.1081 44.1413 15.0905 42.6166 15.7193L48 27.9931H39.2739L34.9813 17.1733H32.096V27.9931H24.32V0H39.1332C40.869 0 42.3468 0.379883 43.5666 1.13965C44.8098 1.87322 45.7364 2.88187 46.3463 4.16562C46.9796 5.42316 47.2963 6.7986 47.2963 8.29193ZM39.3795 8.64562C39.3795 7.93825 39.1684 7.34877 38.7461 6.8772C38.3239 6.40562 37.8079 6.16983 37.198 6.16983H32.096V11.1607H37.198C37.8079 11.1607 38.3239 10.9249 38.7461 10.4533C39.1684 9.95556 39.3795 9.35299 39.3795 8.64562Z" fill="url(#paint1_linear_364_300)"/>
<defs>
<linearGradient id="paint0_linear_364_300" x1="24" y1="0" x2="50.8688" y2="24.9646" gradientUnits="userSpaceOnUse">
<stop stop-color="#20A4F3"/>
<stop offset="1" stop-color="white"/>
</linearGradient>
<linearGradient id="paint1_linear_364_300" x1="24" y1="0" x2="50.8688" y2="24.9646" gradientUnits="userSpaceOnUse">
<stop stop-color="#20A4F3"/>
<stop offset="1" stop-color="white"/>
</linearGradient>
</defs>
</svg>
